<mxfile host="app.diagrams.net" agent="Mozilla/5.0 (Windows NT 10.0; Win64; x64; rv:134.0) Gecko/20100101 Firefox/134.0" version="26.0.5">
  <diagram name="Strona-1" id="OiNli2nTRV-AIkxGMjfz">
    <mxGraphModel dx="1274" dy="669" grid="1" gridSize="10" guides="1" tooltips="1" connect="1" arrows="1" fold="1" page="1" pageScale="1" pageWidth="827" pageHeight="1169" math="0" shadow="0">
      <root>
        <mxCell id="0" />
        <mxCell id="1" parent="0" />
        <mxCell id="uDwYnDE8tYoVJFFB1sfF-5" value="&lt;div&gt;ClientApp&lt;/div&gt;&lt;div&gt;&lt;br&gt;&lt;/div&gt;" style="swimlane;fontStyle=1;align=center;verticalAlign=top;childLayout=stackLayout;horizontal=1;startSize=30;horizontalStack=0;resizeParent=1;resizeParentMax=0;resizeLast=0;collapsible=1;marginBottom=0;whiteSpace=wrap;html=1;" parent="1" vertex="1">
          <mxGeometry x="110" y="120" width="160" height="150" as="geometry" />
        </mxCell>
        <mxCell id="uDwYnDE8tYoVJFFB1sfF-6" value="+ field: type" style="text;strokeColor=none;fillColor=none;align=left;verticalAlign=top;spacingLeft=4;spacingRight=4;overflow=hidden;rotatable=0;points=[[0,0.5],[1,0.5]];portConstraint=eastwest;whiteSpace=wrap;html=1;" parent="uDwYnDE8tYoVJFFB1sfF-5" vertex="1">
          <mxGeometry y="30" width="160" height="26" as="geometry" />
        </mxCell>
        <mxCell id="uDwYnDE8tYoVJFFB1sfF-7" value="" style="line;strokeWidth=1;fillColor=none;align=left;verticalAlign=middle;spacingTop=-1;spacingLeft=3;spacingRight=3;rotatable=0;labelPosition=right;points=[];portConstraint=eastwest;strokeColor=inherit;" parent="uDwYnDE8tYoVJFFB1sfF-5" vertex="1">
          <mxGeometry y="56" width="160" height="8" as="geometry" />
        </mxCell>
        <mxCell id="uDwYnDE8tYoVJFFB1sfF-8" value="+ method(type): type" style="text;strokeColor=none;fillColor=none;align=left;verticalAlign=top;spacingLeft=4;spacingRight=4;overflow=hidden;rotatable=0;points=[[0,0.5],[1,0.5]];portConstraint=eastwest;whiteSpace=wrap;html=1;" parent="uDwYnDE8tYoVJFFB1sfF-5" vertex="1">
          <mxGeometry y="64" width="160" height="26" as="geometry" />
        </mxCell>
        <mxCell id="uDwYnDE8tYoVJFFB1sfF-54" value="+ method(type): type" style="text;strokeColor=none;fillColor=none;align=left;verticalAlign=top;spacingLeft=4;spacingRight=4;overflow=hidden;rotatable=0;points=[[0,0.5],[1,0.5]];portConstraint=eastwest;whiteSpace=wrap;html=1;" parent="uDwYnDE8tYoVJFFB1sfF-5" vertex="1">
          <mxGeometry y="90" width="160" height="60" as="geometry" />
        </mxCell>
        <mxCell id="uDwYnDE8tYoVJFFB1sfF-9" value="&lt;div&gt;JoinScene&lt;/div&gt;&lt;div&gt;&lt;br&gt;&lt;/div&gt;" style="swimlane;fontStyle=1;align=center;verticalAlign=top;childLayout=stackLayout;horizontal=1;startSize=26;horizontalStack=0;resizeParent=1;resizeParentMax=0;resizeLast=0;collapsible=1;marginBottom=0;whiteSpace=wrap;html=1;" parent="1" vertex="1">
          <mxGeometry x="480" y="54" width="190" height="86" as="geometry" />
        </mxCell>
        <mxCell id="uDwYnDE8tYoVJFFB1sfF-10" value="+ field: type" style="text;strokeColor=none;fillColor=none;align=left;verticalAlign=top;spacingLeft=4;spacingRight=4;overflow=hidden;rotatable=0;points=[[0,0.5],[1,0.5]];portConstraint=eastwest;whiteSpace=wrap;html=1;" parent="uDwYnDE8tYoVJFFB1sfF-9" vertex="1">
          <mxGeometry y="26" width="190" height="26" as="geometry" />
        </mxCell>
        <mxCell id="uDwYnDE8tYoVJFFB1sfF-11" value="" style="line;strokeWidth=1;fillColor=none;align=left;verticalAlign=middle;spacingTop=-1;spacingLeft=3;spacingRight=3;rotatable=0;labelPosition=right;points=[];portConstraint=eastwest;strokeColor=inherit;" parent="uDwYnDE8tYoVJFFB1sfF-9" vertex="1">
          <mxGeometry y="52" width="190" height="8" as="geometry" />
        </mxCell>
        <mxCell id="uDwYnDE8tYoVJFFB1sfF-12" value="+ method(type): type" style="text;strokeColor=none;fillColor=none;align=left;verticalAlign=top;spacingLeft=4;spacingRight=4;overflow=hidden;rotatable=0;points=[[0,0.5],[1,0.5]];portConstraint=eastwest;whiteSpace=wrap;html=1;" parent="uDwYnDE8tYoVJFFB1sfF-9" vertex="1">
          <mxGeometry y="60" width="190" height="26" as="geometry" />
        </mxCell>
        <mxCell id="uDwYnDE8tYoVJFFB1sfF-13" value="LobbyScene" style="swimlane;fontStyle=1;align=center;verticalAlign=top;childLayout=stackLayout;horizontal=1;startSize=26;horizontalStack=0;resizeParent=1;resizeParentMax=0;resizeLast=0;collapsible=1;marginBottom=0;whiteSpace=wrap;html=1;" parent="1" vertex="1">
          <mxGeometry x="480" y="160" width="190" height="86" as="geometry" />
        </mxCell>
        <mxCell id="uDwYnDE8tYoVJFFB1sfF-14" value="+ field: type" style="text;strokeColor=none;fillColor=none;align=left;verticalAlign=top;spacingLeft=4;spacingRight=4;overflow=hidden;rotatable=0;points=[[0,0.5],[1,0.5]];portConstraint=eastwest;whiteSpace=wrap;html=1;" parent="uDwYnDE8tYoVJFFB1sfF-13" vertex="1">
          <mxGeometry y="26" width="190" height="26" as="geometry" />
        </mxCell>
        <mxCell id="uDwYnDE8tYoVJFFB1sfF-15" value="" style="line;strokeWidth=1;fillColor=none;align=left;verticalAlign=middle;spacingTop=-1;spacingLeft=3;spacingRight=3;rotatable=0;labelPosition=right;points=[];portConstraint=eastwest;strokeColor=inherit;" parent="uDwYnDE8tYoVJFFB1sfF-13" vertex="1">
          <mxGeometry y="52" width="190" height="8" as="geometry" />
        </mxCell>
        <mxCell id="uDwYnDE8tYoVJFFB1sfF-16" value="+ method(type): type" style="text;strokeColor=none;fillColor=none;align=left;verticalAlign=top;spacingLeft=4;spacingRight=4;overflow=hidden;rotatable=0;points=[[0,0.5],[1,0.5]];portConstraint=eastwest;whiteSpace=wrap;html=1;" parent="uDwYnDE8tYoVJFFB1sfF-13" vertex="1">
          <mxGeometry y="60" width="190" height="26" as="geometry" />
        </mxCell>
        <mxCell id="uDwYnDE8tYoVJFFB1sfF-17" value="&lt;div&gt;GameScene&lt;/div&gt;&lt;div&gt;&lt;br&gt;&lt;/div&gt;" style="swimlane;fontStyle=1;align=center;verticalAlign=top;childLayout=stackLayout;horizontal=1;startSize=26;horizontalStack=0;resizeParent=1;resizeParentMax=0;resizeLast=0;collapsible=1;marginBottom=0;whiteSpace=wrap;html=1;" parent="1" vertex="1">
          <mxGeometry x="480" y="270" width="190" height="86" as="geometry" />
        </mxCell>
        <mxCell id="uDwYnDE8tYoVJFFB1sfF-18" value="+ field: type" style="text;strokeColor=none;fillColor=none;align=left;verticalAlign=top;spacingLeft=4;spacingRight=4;overflow=hidden;rotatable=0;points=[[0,0.5],[1,0.5]];portConstraint=eastwest;whiteSpace=wrap;html=1;" parent="uDwYnDE8tYoVJFFB1sfF-17" vertex="1">
          <mxGeometry y="26" width="190" height="26" as="geometry" />
        </mxCell>
        <mxCell id="uDwYnDE8tYoVJFFB1sfF-19" value="" style="line;strokeWidth=1;fillColor=none;align=left;verticalAlign=middle;spacingTop=-1;spacingLeft=3;spacingRight=3;rotatable=0;labelPosition=right;points=[];portConstraint=eastwest;strokeColor=inherit;" parent="uDwYnDE8tYoVJFFB1sfF-17" vertex="1">
          <mxGeometry y="52" width="190" height="8" as="geometry" />
        </mxCell>
        <mxCell id="uDwYnDE8tYoVJFFB1sfF-20" value="+ method(type): type" style="text;strokeColor=none;fillColor=none;align=left;verticalAlign=top;spacingLeft=4;spacingRight=4;overflow=hidden;rotatable=0;points=[[0,0.5],[1,0.5]];portConstraint=eastwest;whiteSpace=wrap;html=1;" parent="uDwYnDE8tYoVJFFB1sfF-17" vertex="1">
          <mxGeometry y="60" width="190" height="26" as="geometry" />
        </mxCell>
        <mxCell id="uDwYnDE8tYoVJFFB1sfF-26" value="&lt;b&gt;GUI&lt;/b&gt;" style="shape=umlFrame;whiteSpace=wrap;html=1;pointerEvents=0;fillColor=#0050ef;fontColor=#ffffff;strokeColor=#001DBC;" parent="1" vertex="1">
          <mxGeometry x="40" y="20" width="750" height="370" as="geometry" />
        </mxCell>
        <mxCell id="uDwYnDE8tYoVJFFB1sfF-35" value="&lt;div&gt;&lt;b&gt;backend&lt;/b&gt;&lt;/div&gt;" style="shape=umlFrame;whiteSpace=wrap;html=1;pointerEvents=0;width=120;height=30;fillColor=#6a00ff;fontColor=#ffffff;strokeColor=#3700CC;swimlaneFillColor=none;" parent="1" vertex="1">
          <mxGeometry x="40" y="420" width="750" height="340" as="geometry" />
        </mxCell>
        <mxCell id="uDwYnDE8tYoVJFFB1sfF-36" value="IOManager" style="swimlane;fontStyle=1;align=center;verticalAlign=top;childLayout=stackLayout;horizontal=1;startSize=26;horizontalStack=0;resizeParent=1;resizeParentMax=0;resizeLast=0;collapsible=1;marginBottom=0;whiteSpace=wrap;html=1;" parent="1" vertex="1">
          <mxGeometry x="110" y="554" width="160" height="86" as="geometry" />
        </mxCell>
        <mxCell id="uDwYnDE8tYoVJFFB1sfF-37" value="+ field: type" style="text;strokeColor=none;fillColor=none;align=left;verticalAlign=top;spacingLeft=4;spacingRight=4;overflow=hidden;rotatable=0;points=[[0,0.5],[1,0.5]];portConstraint=eastwest;whiteSpace=wrap;html=1;" parent="uDwYnDE8tYoVJFFB1sfF-36" vertex="1">
          <mxGeometry y="26" width="160" height="26" as="geometry" />
        </mxCell>
        <mxCell id="uDwYnDE8tYoVJFFB1sfF-38" value="" style="line;strokeWidth=1;fillColor=none;align=left;verticalAlign=middle;spacingTop=-1;spacingLeft=3;spacingRight=3;rotatable=0;labelPosition=right;points=[];portConstraint=eastwest;strokeColor=inherit;" parent="uDwYnDE8tYoVJFFB1sfF-36" vertex="1">
          <mxGeometry y="52" width="160" height="8" as="geometry" />
        </mxCell>
        <mxCell id="uDwYnDE8tYoVJFFB1sfF-39" value="+ method(type): type" style="text;strokeColor=none;fillColor=none;align=left;verticalAlign=top;spacingLeft=4;spacingRight=4;overflow=hidden;rotatable=0;points=[[0,0.5],[1,0.5]];portConstraint=eastwest;whiteSpace=wrap;html=1;" parent="uDwYnDE8tYoVJFFB1sfF-36" vertex="1">
          <mxGeometry y="60" width="160" height="26" as="geometry" />
        </mxCell>
        <mxCell id="uDwYnDE8tYoVJFFB1sfF-44" value="ServerIOHandler" style="swimlane;fontStyle=1;align=center;verticalAlign=top;childLayout=stackLayout;horizontal=1;startSize=26;horizontalStack=0;resizeParent=1;resizeParentMax=0;resizeLast=0;collapsible=1;marginBottom=0;whiteSpace=wrap;html=1;" parent="1" vertex="1">
          <mxGeometry x="310" y="640" width="190" height="86" as="geometry" />
        </mxCell>
        <mxCell id="uDwYnDE8tYoVJFFB1sfF-45" value="+ field: type" style="text;strokeColor=none;fillColor=none;align=left;verticalAlign=top;spacingLeft=4;spacingRight=4;overflow=hidden;rotatable=0;points=[[0,0.5],[1,0.5]];portConstraint=eastwest;whiteSpace=wrap;html=1;" parent="uDwYnDE8tYoVJFFB1sfF-44" vertex="1">
          <mxGeometry y="26" width="190" height="26" as="geometry" />
        </mxCell>
        <mxCell id="uDwYnDE8tYoVJFFB1sfF-46" value="" style="line;strokeWidth=1;fillColor=none;align=left;verticalAlign=middle;spacingTop=-1;spacingLeft=3;spacingRight=3;rotatable=0;labelPosition=right;points=[];portConstraint=eastwest;strokeColor=inherit;" parent="uDwYnDE8tYoVJFFB1sfF-44" vertex="1">
          <mxGeometry y="52" width="190" height="8" as="geometry" />
        </mxCell>
        <mxCell id="uDwYnDE8tYoVJFFB1sfF-47" value="+ method(type): type" style="text;strokeColor=none;fillColor=none;align=left;verticalAlign=top;spacingLeft=4;spacingRight=4;overflow=hidden;rotatable=0;points=[[0,0.5],[1,0.5]];portConstraint=eastwest;whiteSpace=wrap;html=1;" parent="uDwYnDE8tYoVJFFB1sfF-44" vertex="1">
          <mxGeometry y="60" width="190" height="26" as="geometry" />
        </mxCell>
        <mxCell id="uDwYnDE8tYoVJFFB1sfF-48" value="" style="endArrow=none;html=1;rounded=0;exitX=0;exitY=0.25;exitDx=0;exitDy=0;entryX=1;entryY=0.25;entryDx=0;entryDy=0;" parent="1" source="uDwYnDE8tYoVJFFB1sfF-44" target="uDwYnDE8tYoVJFFB1sfF-36" edge="1">
          <mxGeometry relative="1" as="geometry">
            <mxPoint x="290" y="600" as="sourcePoint" />
            <mxPoint x="415" y="550" as="targetPoint" />
          </mxGeometry>
        </mxCell>
        <mxCell id="uDwYnDE8tYoVJFFB1sfF-49" value="&lt;b&gt;1&lt;/b&gt;" style="resizable=0;html=1;whiteSpace=wrap;align=left;verticalAlign=bottom;" parent="uDwYnDE8tYoVJFFB1sfF-48" connectable="0" vertex="1">
          <mxGeometry x="-1" relative="1" as="geometry" />
        </mxCell>
        <mxCell id="uDwYnDE8tYoVJFFB1sfF-50" value="&lt;b&gt;1&lt;/b&gt;" style="resizable=0;html=1;whiteSpace=wrap;align=right;verticalAlign=bottom;" parent="uDwYnDE8tYoVJFFB1sfF-48" connectable="0" vertex="1">
          <mxGeometry x="1" relative="1" as="geometry" />
        </mxCell>
        <mxCell id="uDwYnDE8tYoVJFFB1sfF-51" value="" style="endArrow=none;html=1;rounded=0;entryX=0.5;entryY=0;entryDx=0;entryDy=0;exitX=0.505;exitY=1.011;exitDx=0;exitDy=0;exitPerimeter=0;" parent="1" source="uDwYnDE8tYoVJFFB1sfF-54" target="uDwYnDE8tYoVJFFB1sfF-36" edge="1">
          <mxGeometry relative="1" as="geometry">
            <mxPoint x="190" y="280" as="sourcePoint" />
            <mxPoint x="300" y="340" as="targetPoint" />
          </mxGeometry>
        </mxCell>
        <mxCell id="uDwYnDE8tYoVJFFB1sfF-52" value="&lt;b&gt;1&lt;/b&gt;" style="resizable=0;html=1;whiteSpace=wrap;align=left;verticalAlign=bottom;" parent="uDwYnDE8tYoVJFFB1sfF-51" connectable="0" vertex="1">
          <mxGeometry x="-1" relative="1" as="geometry" />
        </mxCell>
        <mxCell id="uDwYnDE8tYoVJFFB1sfF-53" value="&lt;b&gt;1&lt;/b&gt;" style="resizable=0;html=1;whiteSpace=wrap;align=right;verticalAlign=bottom;" parent="uDwYnDE8tYoVJFFB1sfF-51" connectable="0" vertex="1">
          <mxGeometry x="1" relative="1" as="geometry" />
        </mxCell>
        <mxCell id="uDwYnDE8tYoVJFFB1sfF-58" value="" style="endArrow=none;html=1;rounded=0;entryX=0;entryY=0.25;entryDx=0;entryDy=0;exitX=1;exitY=0.5;exitDx=0;exitDy=0;" parent="1" source="uDwYnDE8tYoVJFFB1sfF-6" target="uDwYnDE8tYoVJFFB1sfF-13" edge="1">
          <mxGeometry relative="1" as="geometry">
            <mxPoint x="310" y="180" as="sourcePoint" />
            <mxPoint x="470" y="180" as="targetPoint" />
          </mxGeometry>
        </mxCell>
        <mxCell id="uDwYnDE8tYoVJFFB1sfF-59" value="&lt;b&gt;1&lt;/b&gt;" style="resizable=0;html=1;whiteSpace=wrap;align=left;verticalAlign=bottom;" parent="uDwYnDE8tYoVJFFB1sfF-58" connectable="0" vertex="1">
          <mxGeometry x="-1" relative="1" as="geometry" />
        </mxCell>
        <mxCell id="uDwYnDE8tYoVJFFB1sfF-60" value="&lt;b&gt;1&lt;/b&gt;" style="resizable=0;html=1;whiteSpace=wrap;align=right;verticalAlign=bottom;" parent="uDwYnDE8tYoVJFFB1sfF-58" connectable="0" vertex="1">
          <mxGeometry x="1" relative="1" as="geometry" />
        </mxCell>
        <mxCell id="uDwYnDE8tYoVJFFB1sfF-61" value="" style="endArrow=none;html=1;rounded=0;entryX=0;entryY=0.25;entryDx=0;entryDy=0;exitX=1;exitY=0.5;exitDx=0;exitDy=0;" parent="1" source="uDwYnDE8tYoVJFFB1sfF-6" target="uDwYnDE8tYoVJFFB1sfF-17" edge="1">
          <mxGeometry relative="1" as="geometry">
            <mxPoint x="270" y="180" as="sourcePoint" />
            <mxPoint x="500" y="270" as="targetPoint" />
          </mxGeometry>
        </mxCell>
        <mxCell id="uDwYnDE8tYoVJFFB1sfF-62" value="&lt;b&gt;1&lt;/b&gt;" style="resizable=0;html=1;whiteSpace=wrap;align=left;verticalAlign=bottom;" parent="uDwYnDE8tYoVJFFB1sfF-61" connectable="0" vertex="1">
          <mxGeometry x="-1" relative="1" as="geometry" />
        </mxCell>
        <mxCell id="uDwYnDE8tYoVJFFB1sfF-63" value="&lt;b&gt;1&lt;/b&gt;" style="resizable=0;html=1;whiteSpace=wrap;align=right;verticalAlign=bottom;" parent="uDwYnDE8tYoVJFFB1sfF-61" connectable="0" vertex="1">
          <mxGeometry x="1" relative="1" as="geometry" />
        </mxCell>
        <mxCell id="uDwYnDE8tYoVJFFB1sfF-65" value="" style="endArrow=none;html=1;rounded=0;entryX=0;entryY=0.25;entryDx=0;entryDy=0;exitX=1;exitY=0.5;exitDx=0;exitDy=0;" parent="1" source="uDwYnDE8tYoVJFFB1sfF-6" target="uDwYnDE8tYoVJFFB1sfF-9" edge="1">
          <mxGeometry relative="1" as="geometry">
            <mxPoint x="260" y="110" as="sourcePoint" />
            <mxPoint x="420" y="110" as="targetPoint" />
          </mxGeometry>
        </mxCell>
        <mxCell id="uDwYnDE8tYoVJFFB1sfF-66" value="&lt;b&gt;1&lt;/b&gt;" style="resizable=0;html=1;whiteSpace=wrap;align=left;verticalAlign=bottom;" parent="uDwYnDE8tYoVJFFB1sfF-65" connectable="0" vertex="1">
          <mxGeometry x="-1" relative="1" as="geometry" />
        </mxCell>
        <mxCell id="uDwYnDE8tYoVJFFB1sfF-67" value="&lt;b&gt;1&lt;/b&gt;" style="resizable=0;html=1;whiteSpace=wrap;align=right;verticalAlign=bottom;" parent="uDwYnDE8tYoVJFFB1sfF-65" connectable="0" vertex="1">
          <mxGeometry x="1" relative="1" as="geometry" />
        </mxCell>
        <mxCell id="uDwYnDE8tYoVJFFB1sfF-71" value="GameManager" style="swimlane;fontStyle=1;align=center;verticalAlign=top;childLayout=stackLayout;horizontal=1;startSize=26;horizontalStack=0;resizeParent=1;resizeParentMax=0;resizeLast=0;collapsible=1;marginBottom=0;whiteSpace=wrap;html=1;" parent="1" vertex="1">
          <mxGeometry x="340" y="468" width="190" height="86" as="geometry" />
        </mxCell>
        <mxCell id="uDwYnDE8tYoVJFFB1sfF-72" value="+ field: type" style="text;strokeColor=none;fillColor=none;align=left;verticalAlign=top;spacingLeft=4;spacingRight=4;overflow=hidden;rotatable=0;points=[[0,0.5],[1,0.5]];portConstraint=eastwest;whiteSpace=wrap;html=1;" parent="uDwYnDE8tYoVJFFB1sfF-71" vertex="1">
          <mxGeometry y="26" width="190" height="26" as="geometry" />
        </mxCell>
        <mxCell id="uDwYnDE8tYoVJFFB1sfF-73" value="" style="line;strokeWidth=1;fillColor=none;align=left;verticalAlign=middle;spacingTop=-1;spacingLeft=3;spacingRight=3;rotatable=0;labelPosition=right;points=[];portConstraint=eastwest;strokeColor=inherit;" parent="uDwYnDE8tYoVJFFB1sfF-71" vertex="1">
          <mxGeometry y="52" width="190" height="8" as="geometry" />
        </mxCell>
        <mxCell id="uDwYnDE8tYoVJFFB1sfF-74" value="+ method(type): type" style="text;strokeColor=none;fillColor=none;align=left;verticalAlign=top;spacingLeft=4;spacingRight=4;overflow=hidden;rotatable=0;points=[[0,0.5],[1,0.5]];portConstraint=eastwest;whiteSpace=wrap;html=1;" parent="uDwYnDE8tYoVJFFB1sfF-71" vertex="1">
          <mxGeometry y="60" width="190" height="26" as="geometry" />
        </mxCell>
        <mxCell id="uDwYnDE8tYoVJFFB1sfF-75" value="" style="endArrow=none;html=1;rounded=0;exitX=0;exitY=0.25;exitDx=0;exitDy=0;entryX=1;entryY=0.5;entryDx=0;entryDy=0;" parent="1" source="uDwYnDE8tYoVJFFB1sfF-71" target="uDwYnDE8tYoVJFFB1sfF-6" edge="1">
          <mxGeometry relative="1" as="geometry">
            <mxPoint x="490" y="632" as="sourcePoint" />
            <mxPoint x="260" y="531" as="targetPoint" />
          </mxGeometry>
        </mxCell>
        <mxCell id="uDwYnDE8tYoVJFFB1sfF-76" value="&lt;b&gt;1&lt;/b&gt;" style="resizable=0;html=1;whiteSpace=wrap;align=left;verticalAlign=bottom;" parent="uDwYnDE8tYoVJFFB1sfF-75" connectable="0" vertex="1">
          <mxGeometry x="-1" relative="1" as="geometry" />
        </mxCell>
        <mxCell id="uDwYnDE8tYoVJFFB1sfF-77" value="&lt;b&gt;1&lt;/b&gt;" style="resizable=0;html=1;whiteSpace=wrap;align=right;verticalAlign=bottom;" parent="uDwYnDE8tYoVJFFB1sfF-75" connectable="0" vertex="1">
          <mxGeometry x="1" relative="1" as="geometry" />
        </mxCell>
        <mxCell id="uDwYnDE8tYoVJFFB1sfF-79" value="&lt;div&gt;scenes&lt;/div&gt;" style="shape=umlFrame;whiteSpace=wrap;html=1;pointerEvents=0;fillColor=#008a00;fontColor=#ffffff;strokeColor=#005700;" parent="1" vertex="1">
          <mxGeometry x="390" y="40" width="370" height="340" as="geometry" />
        </mxCell>
        <mxCell id="E3HoVzwICx1YVMgUgTqa-1" value="ServerResponseInterpreter" style="swimlane;fontStyle=1;align=center;verticalAlign=top;childLayout=stackLayout;horizontal=1;startSize=26;horizontalStack=0;resizeParent=1;resizeParentMax=0;resizeLast=0;collapsible=1;marginBottom=0;whiteSpace=wrap;html=1;" vertex="1" parent="1">
          <mxGeometry x="585" y="640" width="180" height="86" as="geometry" />
        </mxCell>
        <mxCell id="E3HoVzwICx1YVMgUgTqa-2" value="+ field: type" style="text;strokeColor=none;fillColor=none;align=left;verticalAlign=top;spacingLeft=4;spacingRight=4;overflow=hidden;rotatable=0;points=[[0,0.5],[1,0.5]];portConstraint=eastwest;whiteSpace=wrap;html=1;" vertex="1" parent="E3HoVzwICx1YVMgUgTqa-1">
          <mxGeometry y="26" width="180" height="26" as="geometry" />
        </mxCell>
        <mxCell id="E3HoVzwICx1YVMgUgTqa-3" value="" style="line;strokeWidth=1;fillColor=none;align=left;verticalAlign=middle;spacingTop=-1;spacingLeft=3;spacingRight=3;rotatable=0;labelPosition=right;points=[];portConstraint=eastwest;strokeColor=inherit;" vertex="1" parent="E3HoVzwICx1YVMgUgTqa-1">
          <mxGeometry y="52" width="180" height="8" as="geometry" />
        </mxCell>
        <mxCell id="E3HoVzwICx1YVMgUgTqa-4" value="+ method(type): type" style="text;strokeColor=none;fillColor=none;align=left;verticalAlign=top;spacingLeft=4;spacingRight=4;overflow=hidden;rotatable=0;points=[[0,0.5],[1,0.5]];portConstraint=eastwest;whiteSpace=wrap;html=1;" vertex="1" parent="E3HoVzwICx1YVMgUgTqa-1">
          <mxGeometry y="60" width="180" height="26" as="geometry" />
        </mxCell>
        <mxCell id="E3HoVzwICx1YVMgUgTqa-5" value="Field" style="swimlane;fontStyle=1;align=center;verticalAlign=top;childLayout=stackLayout;horizontal=1;startSize=26;horizontalStack=0;resizeParent=1;resizeParentMax=0;resizeLast=0;collapsible=1;marginBottom=0;whiteSpace=wrap;html=1;" vertex="1" parent="1">
          <mxGeometry x="585" y="468" width="160" height="86" as="geometry" />
        </mxCell>
        <mxCell id="E3HoVzwICx1YVMgUgTqa-6" value="+ field: type" style="text;strokeColor=none;fillColor=none;align=left;verticalAlign=top;spacingLeft=4;spacingRight=4;overflow=hidden;rotatable=0;points=[[0,0.5],[1,0.5]];portConstraint=eastwest;whiteSpace=wrap;html=1;" vertex="1" parent="E3HoVzwICx1YVMgUgTqa-5">
          <mxGeometry y="26" width="160" height="26" as="geometry" />
        </mxCell>
        <mxCell id="E3HoVzwICx1YVMgUgTqa-7" value="" style="line;strokeWidth=1;fillColor=none;align=left;verticalAlign=middle;spacingTop=-1;spacingLeft=3;spacingRight=3;rotatable=0;labelPosition=right;points=[];portConstraint=eastwest;strokeColor=inherit;" vertex="1" parent="E3HoVzwICx1YVMgUgTqa-5">
          <mxGeometry y="52" width="160" height="8" as="geometry" />
        </mxCell>
        <mxCell id="E3HoVzwICx1YVMgUgTqa-8" value="+ method(type): type" style="text;strokeColor=none;fillColor=none;align=left;verticalAlign=top;spacingLeft=4;spacingRight=4;overflow=hidden;rotatable=0;points=[[0,0.5],[1,0.5]];portConstraint=eastwest;whiteSpace=wrap;html=1;" vertex="1" parent="E3HoVzwICx1YVMgUgTqa-5">
          <mxGeometry y="60" width="160" height="26" as="geometry" />
        </mxCell>
        <mxCell id="E3HoVzwICx1YVMgUgTqa-9" value="" style="endArrow=diamondThin;endFill=1;endSize=24;html=1;rounded=0;entryX=1;entryY=0.25;entryDx=0;entryDy=0;exitX=0;exitY=0.25;exitDx=0;exitDy=0;" edge="1" parent="1" source="E3HoVzwICx1YVMgUgTqa-5" target="uDwYnDE8tYoVJFFB1sfF-71">
          <mxGeometry width="160" relative="1" as="geometry">
            <mxPoint x="400" y="540" as="sourcePoint" />
            <mxPoint x="560" y="540" as="targetPoint" />
          </mxGeometry>
        </mxCell>
        <mxCell id="E3HoVzwICx1YVMgUgTqa-10" value="1" style="edgeLabel;html=1;align=center;verticalAlign=middle;resizable=0;points=[];" vertex="1" connectable="0" parent="E3HoVzwICx1YVMgUgTqa-9">
          <mxGeometry x="0.5143" relative="1" as="geometry">
            <mxPoint x="-7" y="-21" as="offset" />
          </mxGeometry>
        </mxCell>
        <mxCell id="E3HoVzwICx1YVMgUgTqa-11" value="*" style="text;html=1;align=center;verticalAlign=middle;resizable=0;points=[];autosize=1;strokeColor=none;fillColor=none;" vertex="1" parent="1">
          <mxGeometry x="560" y="460" width="30" height="30" as="geometry" />
        </mxCell>
        <mxCell id="E3HoVzwICx1YVMgUgTqa-18" value="" style="endArrow=diamondThin;endFill=1;endSize=24;html=1;rounded=0;entryX=1;entryY=0.25;entryDx=0;entryDy=0;exitX=0;exitY=0.25;exitDx=0;exitDy=0;" edge="1" parent="1" source="E3HoVzwICx1YVMgUgTqa-1" target="uDwYnDE8tYoVJFFB1sfF-44">
          <mxGeometry width="160" relative="1" as="geometry">
            <mxPoint x="370" y="670" as="sourcePoint" />
            <mxPoint x="530" y="670" as="targetPoint" />
          </mxGeometry>
        </mxCell>
        <mxCell id="E3HoVzwICx1YVMgUgTqa-19" value="1" style="text;html=1;align=center;verticalAlign=middle;resizable=0;points=[];autosize=1;strokeColor=none;fillColor=none;" vertex="1" parent="1">
          <mxGeometry x="555" y="630" width="30" height="30" as="geometry" />
        </mxCell>
        <mxCell id="E3HoVzwICx1YVMgUgTqa-21" value="1" style="text;html=1;align=center;verticalAlign=middle;resizable=0;points=[];autosize=1;strokeColor=none;fillColor=none;" vertex="1" parent="1">
          <mxGeometry x="510" y="630" width="30" height="30" as="geometry" />
        </mxCell>
        <mxCell id="E3HoVzwICx1YVMgUgTqa-22" value="Game" style="shape=umlFrame;whiteSpace=wrap;html=1;pointerEvents=0;fillColor=#1ba1e2;fontColor=#ffffff;strokeColor=#006EAF;" vertex="1" parent="1">
          <mxGeometry x="320" y="430" width="450" height="170" as="geometry" />
        </mxCell>
      </root>
    </mxGraphModel>
  </diagram>
</mxfile>
